<mxfile host="app.diagrams.net" agent="Mozilla/5.0 (Macintosh; Intel Mac OS X 10_15_7) AppleWebKit/537.36 (KHTML, like Gecko) Chrome/135.0.0.0 Safari/537.36" version="26.2.13">
  <diagram name="Strona-1" id="DGLCX2pFGqtqJWPz01mG">
    <mxGraphModel dx="2948" dy="1272" grid="1" gridSize="10" guides="1" tooltips="1" connect="1" arrows="1" fold="1" page="1" pageScale="1" pageWidth="827" pageHeight="1169" math="0" shadow="0">
      <root>
        <mxCell id="0" />
        <mxCell id="1" parent="0" />
        <mxCell id="1J3snHlIpeHZmTBwT5r7-5" value="" style="edgeStyle=orthogonalEdgeStyle;rounded=0;orthogonalLoop=1;jettySize=auto;html=1;" edge="1" parent="1" source="1J3snHlIpeHZmTBwT5r7-1" target="1J3snHlIpeHZmTBwT5r7-4">
          <mxGeometry relative="1" as="geometry" />
        </mxCell>
        <mxCell id="1J3snHlIpeHZmTBwT5r7-7" value="" style="edgeStyle=orthogonalEdgeStyle;rounded=0;orthogonalLoop=1;jettySize=auto;html=1;" edge="1" parent="1" source="1J3snHlIpeHZmTBwT5r7-1" target="1J3snHlIpeHZmTBwT5r7-6">
          <mxGeometry relative="1" as="geometry" />
        </mxCell>
        <mxCell id="1J3snHlIpeHZmTBwT5r7-1" value="input" style="shape=parallelogram;perimeter=parallelogramPerimeter;whiteSpace=wrap;html=1;fixedSize=1;" vertex="1" parent="1">
          <mxGeometry x="350" y="620" width="120" height="60" as="geometry" />
        </mxCell>
        <mxCell id="1J3snHlIpeHZmTBwT5r7-4" value="START" style="ellipse;whiteSpace=wrap;html=1;" vertex="1" parent="1">
          <mxGeometry x="310" y="470" width="200" height="80" as="geometry" />
        </mxCell>
        <mxCell id="1J3snHlIpeHZmTBwT5r7-9" value="" style="edgeStyle=orthogonalEdgeStyle;rounded=0;orthogonalLoop=1;jettySize=auto;html=1;" edge="1" parent="1" source="1J3snHlIpeHZmTBwT5r7-6">
          <mxGeometry relative="1" as="geometry">
            <mxPoint x="510" y="790" as="targetPoint" />
          </mxGeometry>
        </mxCell>
        <mxCell id="1J3snHlIpeHZmTBwT5r7-30" value="T" style="edgeLabel;html=1;align=center;verticalAlign=middle;resizable=0;points=[];" vertex="1" connectable="0" parent="1J3snHlIpeHZmTBwT5r7-9">
          <mxGeometry x="0.0082" relative="1" as="geometry">
            <mxPoint y="1" as="offset" />
          </mxGeometry>
        </mxCell>
        <mxCell id="1J3snHlIpeHZmTBwT5r7-28" value="" style="edgeStyle=orthogonalEdgeStyle;rounded=0;orthogonalLoop=1;jettySize=auto;html=1;entryX=0.5;entryY=0;entryDx=0;entryDy=0;" edge="1" parent="1" source="1J3snHlIpeHZmTBwT5r7-6" target="1J3snHlIpeHZmTBwT5r7-26">
          <mxGeometry relative="1" as="geometry" />
        </mxCell>
        <mxCell id="1J3snHlIpeHZmTBwT5r7-29" value="F" style="edgeLabel;html=1;align=center;verticalAlign=middle;resizable=0;points=[];" vertex="1" connectable="0" parent="1J3snHlIpeHZmTBwT5r7-28">
          <mxGeometry x="-0.5895" y="-1" relative="1" as="geometry">
            <mxPoint as="offset" />
          </mxGeometry>
        </mxCell>
        <mxCell id="1J3snHlIpeHZmTBwT5r7-6" value="If external&lt;br&gt;data" style="rhombus;whiteSpace=wrap;html=1;" vertex="1" parent="1">
          <mxGeometry x="370" y="750" width="80" height="80" as="geometry" />
        </mxCell>
        <mxCell id="1J3snHlIpeHZmTBwT5r7-11" value="" style="edgeStyle=orthogonalEdgeStyle;rounded=0;orthogonalLoop=1;jettySize=auto;html=1;" edge="1" parent="1" target="1J3snHlIpeHZmTBwT5r7-10">
          <mxGeometry relative="1" as="geometry">
            <mxPoint x="570" y="820" as="sourcePoint" />
          </mxGeometry>
        </mxCell>
        <mxCell id="1J3snHlIpeHZmTBwT5r7-33" value="" style="edgeStyle=orthogonalEdgeStyle;rounded=0;orthogonalLoop=1;jettySize=auto;html=1;" edge="1" parent="1" source="1J3snHlIpeHZmTBwT5r7-10" target="1J3snHlIpeHZmTBwT5r7-32">
          <mxGeometry relative="1" as="geometry" />
        </mxCell>
        <mxCell id="1J3snHlIpeHZmTBwT5r7-10" value="Draw graphics" style="whiteSpace=wrap;html=1;" vertex="1" parent="1">
          <mxGeometry x="510" y="900" width="120" height="60" as="geometry" />
        </mxCell>
        <mxCell id="1J3snHlIpeHZmTBwT5r7-14" value="" style="edgeStyle=orthogonalEdgeStyle;rounded=0;orthogonalLoop=1;jettySize=auto;html=1;" edge="1" parent="1" source="1J3snHlIpeHZmTBwT5r7-12">
          <mxGeometry relative="1" as="geometry">
            <mxPoint x="630" y="790" as="targetPoint" />
          </mxGeometry>
        </mxCell>
        <mxCell id="1J3snHlIpeHZmTBwT5r7-12" value="with structures" style="whiteSpace=wrap;html=1;" vertex="1" parent="1">
          <mxGeometry x="690" y="760" width="120" height="60" as="geometry" />
        </mxCell>
        <mxCell id="1J3snHlIpeHZmTBwT5r7-17" value="compare" style="shape=process;whiteSpace=wrap;html=1;backgroundOutline=1;" vertex="1" parent="1">
          <mxGeometry x="510" y="760" width="120" height="60" as="geometry" />
        </mxCell>
        <mxCell id="1J3snHlIpeHZmTBwT5r7-19" value="" style="edgeStyle=orthogonalEdgeStyle;rounded=0;orthogonalLoop=1;jettySize=auto;html=1;" edge="1" parent="1" source="1J3snHlIpeHZmTBwT5r7-18" target="1J3snHlIpeHZmTBwT5r7-12">
          <mxGeometry relative="1" as="geometry" />
        </mxCell>
        <mxCell id="1J3snHlIpeHZmTBwT5r7-18" value="&lt;span style=&quot;font-weight: normal;&quot;&gt;spectrums.mat&lt;/span&gt;" style="shape=dataStorage;whiteSpace=wrap;html=1;fixedSize=1;fontStyle=1" vertex="1" parent="1">
          <mxGeometry x="870" y="750" width="100" height="80" as="geometry" />
        </mxCell>
        <mxCell id="1J3snHlIpeHZmTBwT5r7-25" style="edgeStyle=orthogonalEdgeStyle;rounded=0;orthogonalLoop=1;jettySize=auto;html=1;exitX=0;exitY=0.5;exitDx=0;exitDy=0;" edge="1" parent="1" source="1J3snHlIpeHZmTBwT5r7-20">
          <mxGeometry relative="1" as="geometry">
            <mxPoint x="850" y="790" as="targetPoint" />
          </mxGeometry>
        </mxCell>
        <mxCell id="1J3snHlIpeHZmTBwT5r7-20" value="centroids&lt;span style=&quot;background-color: transparent; color: light-dark(rgb(0, 0, 0), rgb(255, 255, 255));&quot;&gt;.mat&lt;/span&gt;" style="shape=dataStorage;whiteSpace=wrap;html=1;fixedSize=1;" vertex="1" parent="1">
          <mxGeometry x="870" y="840" width="100" height="80" as="geometry" />
        </mxCell>
        <mxCell id="1J3snHlIpeHZmTBwT5r7-24" style="edgeStyle=orthogonalEdgeStyle;rounded=0;orthogonalLoop=1;jettySize=auto;html=1;exitX=0;exitY=0.5;exitDx=0;exitDy=0;" edge="1" parent="1" source="1J3snHlIpeHZmTBwT5r7-21">
          <mxGeometry relative="1" as="geometry">
            <mxPoint x="850" y="700" as="targetPoint" />
          </mxGeometry>
        </mxCell>
        <mxCell id="1J3snHlIpeHZmTBwT5r7-21" value="segments.mat" style="shape=dataStorage;whiteSpace=wrap;html=1;fixedSize=1;" vertex="1" parent="1">
          <mxGeometry x="870" y="660" width="100" height="80" as="geometry" />
        </mxCell>
        <mxCell id="1J3snHlIpeHZmTBwT5r7-23" style="edgeStyle=orthogonalEdgeStyle;rounded=0;orthogonalLoop=1;jettySize=auto;html=1;exitX=0;exitY=0.5;exitDx=0;exitDy=0;" edge="1" parent="1" source="1J3snHlIpeHZmTBwT5r7-22">
          <mxGeometry relative="1" as="geometry">
            <mxPoint x="850" y="790" as="targetPoint" />
          </mxGeometry>
        </mxCell>
        <mxCell id="1J3snHlIpeHZmTBwT5r7-22" value="signals.mat" style="shape=dataStorage;whiteSpace=wrap;html=1;fixedSize=1;" vertex="1" parent="1">
          <mxGeometry x="870" y="570" width="100" height="80" as="geometry" />
        </mxCell>
        <mxCell id="1J3snHlIpeHZmTBwT5r7-31" style="edgeStyle=orthogonalEdgeStyle;rounded=0;orthogonalLoop=1;jettySize=auto;html=1;exitX=1;exitY=0.5;exitDx=0;exitDy=0;entryX=0;entryY=0.5;entryDx=0;entryDy=0;" edge="1" parent="1" source="1J3snHlIpeHZmTBwT5r7-26" target="1J3snHlIpeHZmTBwT5r7-10">
          <mxGeometry relative="1" as="geometry" />
        </mxCell>
        <mxCell id="1J3snHlIpeHZmTBwT5r7-26" value="compute or load structs" style="shape=process;whiteSpace=wrap;html=1;backgroundOutline=1;" vertex="1" parent="1">
          <mxGeometry x="230" y="900" width="120" height="60" as="geometry" />
        </mxCell>
        <mxCell id="1J3snHlIpeHZmTBwT5r7-32" value="STOP" style="ellipse;whiteSpace=wrap;html=1;" vertex="1" parent="1">
          <mxGeometry x="470" y="1010" width="200" height="80" as="geometry" />
        </mxCell>
      </root>
    </mxGraphModel>
  </diagram>
</mxfile>
